<svg width="20" height="11" viewBox="0 0 20 11" fill="none" xmlns="http://www.w3.org/2000/svg">
<g clip-path="url(#clip0_10200_6159)">
<path d="M14.5593 7.61452H13.3406V4.03534L13.9282 4.54511C14.2873 3.93773 15.1034 3.91604 15.3972 3.95942C15.7018 3.99196 15.8651 4.03534 15.8651 4.03534L15.3645 4.93556C14.6572 4.93556 14.5593 5.42363 14.5593 5.72732C14.5593 6.04185 14.5593 6.96376 14.5593 7.61452Z" fill="#231F20"/>
<path d="M8.11749 7.5385L7.10552 7.10466C6.60497 7.56019 6.1806 7.63612 5.72358 7.63612C4.71161 7.63612 3.89551 6.74675 3.89551 5.74891C3.89551 4.76193 4.65721 3.87256 5.68006 3.87256C6.13707 3.87256 6.59409 4.00271 6.90965 4.39317V3.95933H8.12837V7.5385H8.11749ZM6.05002 4.87039C5.56036 4.87039 5.20127 5.29338 5.20127 5.75976C5.20127 6.22614 5.57124 6.64913 6.05002 6.64913C6.53969 6.64913 6.89877 6.22614 6.89877 5.75976C6.89877 5.29338 6.5288 4.87039 6.05002 4.87039Z" fill="#231F20"/>
<path d="M12.8182 7.5384L11.8062 7.10456C11.3057 7.56009 10.8813 7.63601 10.4243 7.63601C9.4123 7.64686 8.59619 6.74664 8.59619 5.75966C8.59619 4.77267 9.35789 3.8833 10.3807 3.8833C10.8378 3.8833 11.2948 4.01345 11.6103 4.40391V3.97007H12.8291V7.5384H12.8182ZM10.7507 4.87029C10.261 4.87029 9.90196 5.29328 9.90196 5.75966C9.90196 6.22603 10.2719 6.64903 10.7507 6.64903C11.2404 6.64903 11.5995 6.22603 11.5995 5.75966C11.5995 5.29328 11.2404 4.87029 10.7507 4.87029Z" fill="#231F20"/>
<path d="M20.0001 7.5385L18.9881 7.10466C18.4984 7.56019 18.0632 7.63612 17.6062 7.63612C16.5942 7.63612 15.7781 6.74675 15.7781 5.74891C15.7781 4.76193 16.5398 3.87256 17.5626 3.87256C18.0196 3.87256 18.4767 4.00271 18.7922 4.39317V3.95933H20.0109V7.5385H20.0001ZM17.9217 4.87039C17.432 4.87039 17.073 5.29338 17.073 5.75976C17.073 6.22614 17.4429 6.64913 17.9217 6.64913C18.4114 6.64913 18.7705 6.22614 18.7705 5.75976C18.7705 5.29338 18.4114 4.87039 17.9217 4.87039Z" fill="#231F20"/>
<path d="M6.30033 10.5536V10.5427L0 7.26725L0.631121 5.26074L6.30033 10.5536Z" fill="url(#paint0_linear_10200_6159)"/>
<path d="M0 8.57965V8.49288V3.81826L0.881393 1.58398L0.85963 5.315L0 8.57965Z" fill="url(#paint1_linear_10200_6159)"/>
<path d="M0 9.61011V9.4908V3.81835L4.95103 0.553711L2.01306 5.84655L0 9.61011Z" fill="url(#paint2_linear_10200_6159)"/>
</g>
<defs>
<linearGradient id="paint0_linear_10200_6159" x1="6.19991" y1="10.6847" x2="0.043678" y2="6.03049" gradientUnits="userSpaceOnUse">
<stop stop-color="#E51E25"/>
<stop offset="0.0637529" stop-color="#D81B21"/>
<stop offset="0.65" stop-color="#5F0000"/>
</linearGradient>
<linearGradient id="paint1_linear_10200_6159" x1="0.481981" y1="1.78689" x2="0.364046" y2="8.56536" gradientUnits="userSpaceOnUse">
<stop stop-color="#E51E25"/>
<stop offset="0.0980814" stop-color="#D81B21"/>
<stop offset="1" stop-color="#5F0000"/>
</linearGradient>
<linearGradient id="paint2_linear_10200_6159" x1="-1.29337" y1="8.36764" x2="4.38721" y2="1.0731" gradientUnits="userSpaceOnUse">
<stop stop-color="#5F0000"/>
<stop offset="0.9785" stop-color="#E51E25"/>
</linearGradient>
<clipPath id="clip0_10200_6159">
<rect width="20" height="10" fill="white" transform="translate(0 0.553711)"/>
</clipPath>
</defs>
</svg>
